<svg width="128" height="128" viewBox="0 0 128 128" fill="none" xmlns="http://www.w3.org/2000/svg">
<g clip-path="url(#clip0_2_76)">
<rect width="128" height="128" fill="white"/>
<rect width="128" height="128" rx="21" fill="#2C2C2C"/>
<path d="M39.8203 59.6719C39.5391 56.4844 37.3828 54.375 33.7734 54.375C29.0859 54.375 26.4141 57.9844 26.4141 64.0312C26.4141 70.4062 29.1328 73.6875 33.7266 73.6875C37.1484 73.6875 39.3516 71.8125 39.8203 68.8125L48.8672 68.9062C48.3984 74.7188 43.2891 81.4688 33.5391 81.4688C24.2109 81.4688 17.2266 75.2812 17.2266 64.0312C17.2266 52.7344 24.3984 46.5938 33.5391 46.5938C41.9766 46.5938 48.1172 51.3281 48.8672 59.6719H39.8203ZM59.1328 47.0625V81H50.2734V47.0625H59.1328ZM60.8672 81V47.0625H69.7266V64.2656H70.0547L76.4766 55.5469H86.4609L77.7422 66.7031L86.7422 81H76.5703L71.1797 71.8594L69.7266 73.6406V81H60.8672ZM100.805 63.75C100.617 62.1562 99.1172 61.1719 97.2422 61.1719C95.5547 61.1719 94.1953 61.8281 94.2422 62.9531C94.1953 63.75 94.8047 64.4531 96.8203 64.8281L101.883 65.7656C107.086 66.7031 109.57 68.9062 109.617 72.6562C109.57 78.0469 104.461 81.4688 97.4766 81.4688C89.7891 81.4688 85.3359 78.0469 84.8203 72.8906H93.6328C93.9141 74.5312 95.3672 75.4688 97.5234 75.4688C99.3047 75.4688 100.57 74.8125 100.617 73.6875C100.57 72.6562 99.6797 72.0938 97.6172 71.7188L93.1641 70.9219C88.0078 69.9844 85.4297 67.4062 85.4297 63.4688C85.4297 58.2188 89.8828 55.2188 97.0547 55.2188C104.273 55.2188 108.727 58.4062 108.961 63.75H100.805Z" fill="white"/>
</g>
<defs>
<clipPath id="clip0_2_76">
<rect width="128" height="128" fill="white"/>
</clipPath>
</defs>
</svg>
